<?xml version="1.0" encoding="utf-8"?>
<!-- Generator: Adobe Illustrator 27.5.0, SVG Export Plug-In . SVG Version: 6.00 Build 0)  -->
<svg version="1.1" id="Layer_1" xmlns="http://www.w3.org/2000/svg" xmlns:xlink="http://www.w3.org/1999/xlink" x="0px" y="0px"
	 viewBox="0 0 554.4 115.2" style="enable-background:new 0 0 554.4 115.2;" xml:space="preserve">
<style type="text/css">
	.st0{fill:#EB1700;}
</style>
<path class="st0" d="M57.23,49.32c-5.37,0-8.37-5.09-8.37-14.29c0-9.34,3-14.29,8.37-14.29c5.37,0,8.37,5.02,8.37,14.29
	C65.6,44.37,62.6,49.32,57.23,49.32 M57.23,16.9c-10.95,0-17.01,8.16-17.01,18.13c0,9.97,6.07,18.13,17.01,18.13
	c10.95,0,17.01-8.16,17.01-18.13C74.25,25.05,68.18,16.9,57.23,16.9 M133.29,16.9c-5.16,0-8.02,2.23-9.62,5.09h-0.42v-4.39h-8.23
	v34.86h8.23V29.93c0-5.16,2.65-8.16,6.9-8.16c4.11,0,5.93,2.72,5.93,6.83v23.84h8.23V28.54C144.3,21.36,140.54,16.9,133.29,16.9
	 M162.98,16.9c-7.6,0-13.32,3.21-13.32,10.04c0,5.79,3.97,8.92,8.44,10.04l6.97,1.74c3.69,0.91,5.37,2.23,5.37,5.16
	c0,3.56-2.51,5.58-6.9,5.58c-4.74,0-7.18-2.3-7.95-8.09l-7.39,2.09c0.42,6,6,9.69,14.43,9.69c9.41,0,14.5-4.39,14.5-11.36
	c0-6.55-4.53-9.27-9.27-10.46l-6.69-1.67c-3.35-0.84-4.81-2.37-4.81-4.6c0-2.79,2.37-4.46,5.93-4.46c4.18,0,6.76,2.3,7.11,6.69
	l6.97-2.09C175.53,20.31,170.72,16.9,162.98,16.9 M197.56,49.32c-5.37,0-8.37-5.09-8.37-14.29c0-9.34,3-14.29,8.37-14.29
	c5.37,0,8.37,5.02,8.37,14.29C205.92,44.37,202.93,49.32,197.56,49.32 M197.56,16.9c-10.95,0-17.01,8.16-17.01,18.13
	c0,9.97,6.07,18.13,17.01,18.13c10.95,0,17.01-8.16,17.01-18.13C214.57,25.05,208.5,16.9,197.56,16.9 M237.71,16.9
	c-5.16,0-8.02,2.23-9.62,5.09h-0.42v-4.39h-8.23v34.86h8.23V29.93c0-5.16,2.65-8.16,6.9-8.16c4.11,0,5.93,2.72,5.93,6.83v23.84h8.23
	V28.54C248.73,21.36,244.96,16.9,237.71,16.9 M359.91,49.32c-5.37,0-8.37-5.09-8.37-14.29c0-9.34,3-14.29,8.37-14.29
	c5.37,0,8.37,5.02,8.37,14.29C368.28,44.37,365.28,49.32,359.91,49.32 M359.91,16.9c-10.95,0-17.01,8.16-17.01,18.13
	c0,9.97,6.07,18.13,17.01,18.13c10.95,0,17.01-8.16,17.01-18.13C376.92,25.05,370.86,16.9,359.91,16.9 M435.96,16.9
	c-5.16,0-8.02,2.23-9.62,5.09h-0.42v-4.39h-8.23v34.86h8.23V29.93c0-5.16,2.65-8.16,6.9-8.16c4.11,0,5.93,2.72,5.93,6.83v23.84h8.23
	V28.54C446.98,21.36,443.21,16.9,435.96,16.9 M465.66,16.9c-7.6,0-13.32,3.21-13.32,10.04c0,5.79,3.97,8.92,8.44,10.04l6.97,1.74
	c3.69,0.91,5.37,2.23,5.37,5.16c0,3.56-2.51,5.58-6.9,5.58c-4.74,0-7.18-2.3-7.95-8.09l-7.39,2.09c0.42,6,6,9.69,14.43,9.69
	c9.41,0,14.5-4.39,14.5-11.36c0-6.55-4.53-9.27-9.27-10.46l-6.69-1.67c-3.35-0.84-4.81-2.37-4.81-4.6c0-2.79,2.37-4.46,5.93-4.46
	c4.18,0,6.76,2.3,7.11,6.69l6.97-2.09C478.21,20.31,473.4,16.9,465.66,16.9 M500.23,49.32c-5.37,0-8.37-5.09-8.37-14.29
	c0-9.34,3-14.29,8.37-14.29c5.37,0,8.37,5.02,8.37,14.29C508.6,44.37,505.6,49.32,500.23,49.32 M500.23,16.9
	c-10.95,0-17.01,8.16-17.01,18.13c0,9.97,6.06,18.13,17.01,18.13c10.95,0,17.01-8.16,17.01-18.13
	C517.24,25.05,511.18,16.9,500.23,16.9 M540.39,16.9c-5.16,0-8.02,2.23-9.62,5.09h-0.42v-4.39h-8.23v34.86h8.23V29.93
	c0-5.16,2.65-8.16,6.9-8.16c4.11,0,5.93,2.72,5.93,6.83v23.84h8.23V28.54C551.4,21.36,547.64,16.9,540.39,16.9 M35.35,3.65H26.7
	V39.7c0,5.86-2.23,9.34-7.53,9.34c-5.23,0-7.53-3.69-7.53-10.04v-6.69L3,34.47v3c0,9.13,4.53,16.11,16.18,16.11
	c11.64,0,16.17-6.97,16.17-16.11V3.65 M87.35,3.65h-8.23v48.8h8.23V29.93c0-5.16,2.65-8.16,6.9-8.16c4.11,0,5.93,2.72,5.93,6.83
	v23.84h8.23V28.54c0-7.18-3.77-11.64-11.02-11.64c-5.16,0-8.02,2.23-9.62,5.09h-0.42V3.65 M338.02,3.65h-8.64V39.7
	c0,5.86-2.23,9.34-7.53,9.34c-5.23,0-7.53-3.69-7.53-10.04v-6.69l-8.64,2.16v3c0,9.13,4.53,16.11,16.18,16.11
	s16.17-6.97,16.17-16.11V3.65 M390.02,3.65h-8.23v48.8h8.23V29.93c0-5.16,2.65-8.16,6.9-8.16c4.11,0,5.93,2.72,5.93,6.83v23.84h8.23
	V28.54c0-7.18-3.76-11.64-11.02-11.64c-5.16,0-8.02,2.23-9.62,5.09h-0.42V3.65 M275.84,48.48c-6.69,0-10.81-5.44-10.81-11.23
	c0-3.63,1.6-6.97,4.25-8.85l15.76,17.22C282.12,47.36,278.84,48.48,275.84,48.48 M291.18,39.9l-13.66-15.06
	c2.44-0.98,4.81-1.33,6.76-1.33c5.65,0,9.13,3.28,9.13,8.92C293.41,34.95,292.71,37.53,291.18,39.9 M275.63,22.82l-3-3.35
	c-2.65-2.93-3.42-4.74-3.42-6.9c0-4.04,2.58-6.34,6.62-6.34c4.11,0,6.55,2.37,6.55,6.69C282.39,16.9,280.44,20.66,275.63,22.82
	 M276.05,2.53c-9.62,0-14.36,5.37-14.36,12.06c0,3.62,1.53,7.25,5.58,11.64l0.07,0.14c-6.83,3.28-9.97,8.58-9.97,14.01
	c0,7.18,5.51,13.18,14.01,13.18c4.88,0,10.6-2.02,15.76-5.65l4.18,4.53h10.95v-0.35l-8.92-9.83c3.77-4.46,5.93-9.34,5.93-13.6
	c0-5.3-3.56-8.85-9.13-8.85c-2.93,0-6.21,0.84-8.37,1.67l-0.14-0.28c5.3-2.86,7.53-5.51,7.53-9.2
	C289.16,6.72,284.42,2.53,276.05,2.53 M67.41,90.77c0.77-6.13,3.9-9.62,9.41-9.62c5.23,0,8.3,3.14,8.44,9.62H67.41 M76.82,76.41
	c-9.2,0-15.62,6.48-15.62,18.41c0,11.43,5.93,17.85,15.62,17.85c7.95,0,12.97-4.53,14.22-11.36l-5.3-1.39
	c-0.91,5.86-4.04,7.88-8.37,7.88c-6.9,0-9.97-5.09-10.18-12.9h23.91v-1.95C91.12,80.73,84.49,76.41,76.82,76.41 M172.32,90.77
	c0.77-6.13,3.9-9.62,9.41-9.62c5.23,0,8.3,3.14,8.44,9.62H172.32 M181.73,76.41c-9.2,0-15.62,6.48-15.62,18.41
	c0,11.43,5.93,17.85,15.62,17.85c7.95,0,12.97-4.53,14.22-11.36l-5.3-1.39c-0.91,5.86-4.04,7.88-8.37,7.88
	c-6.9,0-9.97-5.09-10.18-12.9h23.91v-1.95C196.03,80.73,189.4,76.41,181.73,76.41 M217.91,76.41c-9.55,0-16.04,6.69-16.04,18.48
	c0,11.57,6.34,17.78,15.76,17.78c8.51,0,13.32-5.23,14.29-12.41l-5.51-1.33c-0.98,6.55-3.77,8.78-8.37,8.78
	c-6.69,0-10.11-4.88-10.11-13.25c0-8.72,3.63-13.11,9.83-13.11c4.39,0,7.6,2.16,8.65,8.37l5.51-1.33
	C230.95,81.29,226.14,76.41,217.91,76.41 M53.2,63.16h-9.2l-14.43,39.32l-14.5-39.32H5.44v48.8h6.06V69.93l15.55,42.04h4.67
	l15.41-42.11v42.11h6.07V63.16 M112.58,107.72c-5.72,0-9.55-4.11-9.55-13.18c0-9.13,3.83-13.18,9.55-13.18
	c5.72,0,9.55,4.04,9.55,13.18C122.13,103.6,118.3,107.72,112.58,107.72 M127.78,63.16H122V83.8c-1.26-3.84-4.32-7.39-10.39-7.39
	c-7.81,0-14.64,6.14-14.64,18.34c0,12.34,6.83,17.92,14.15,17.92c5.51,0,9.55-3.21,10.88-7.74v2.65c0,1.6,0.14,3.35,0.35,4.39h5.86
	c-0.28-1.67-0.42-4.11-0.42-7.25V63.16 M171.7,63.16h-37.65v5.09h15.83v43.72h6.07V68.25h15.76V63.16 M244.33,63.16h-5.79v48.8h5.79
	V89.03c0-4.88,2.44-8.16,7.6-8.16c5.09,0,7.53,3.28,7.53,8.16v22.94h5.79V87.85c0-6.55-4.04-11.43-11.23-11.43
	c-4.81,0-8.37,2.16-9.69,6.07V63.16"/>
</svg>
