<?xml version="1.0" encoding="utf-8"?>
<!-- Generator: Adobe Illustrator 27.5.0, SVG Export Plug-In . SVG Version: 6.00 Build 0)  -->
<svg version="1.1" shape-rendering="optimizeQuality" id="Layer_1" xmlns="http://www.w3.org/2000/svg" xmlns:xlink="http://www.w3.org/1999/xlink" x="0px" y="0px"
	 viewBox="0 0 583.2 115.2" style="enable-background:new 0 0 583.2 115.2;" xml:space="preserve">
<style type="text/css">
	.st0{fill:#EB1700;}
</style>
<path class="st0" d="M57.84,49.32c-5.37,0-8.37-5.09-8.37-14.29c0-9.34,3-14.29,8.37-14.29c5.37,0,8.37,5.02,8.37,14.29
	C66.2,44.37,63.2,49.32,57.84,49.32 M57.84,16.9c-10.95,0-17.01,8.16-17.01,18.13c0,9.97,6.07,18.13,17.01,18.13
	c10.95,0,17.01-8.16,17.01-18.13C74.85,25.05,68.78,16.9,57.84,16.9 M133.89,16.9c-5.16,0-8.02,2.23-9.62,5.09h-0.42v-4.39h-8.23
	v34.86h8.23V29.93c0-5.16,2.65-8.16,6.9-8.16c4.11,0,5.93,2.72,5.93,6.83v23.84h8.23V28.54C144.9,21.36,141.14,16.9,133.89,16.9
	 M163.58,16.9c-7.6,0-13.32,3.21-13.32,10.04c0,5.79,3.97,8.92,8.44,10.04l6.97,1.74c3.7,0.91,5.37,2.23,5.37,5.16
	c0,3.56-2.51,5.58-6.9,5.58c-4.74,0-7.18-2.3-7.95-8.09l-7.39,2.09c0.42,6,6,9.69,14.43,9.69c9.41,0,14.5-4.39,14.5-11.36
	c0-6.55-4.53-9.27-9.27-10.46l-6.69-1.67c-3.35-0.84-4.81-2.37-4.81-4.6c0-2.79,2.37-4.46,5.93-4.46c4.18,0,6.76,2.3,7.11,6.69
	l6.97-2.09C176.13,20.31,171.32,16.9,163.58,16.9 M198.16,49.32c-5.37,0-8.37-5.09-8.37-14.29c0-9.34,3-14.29,8.37-14.29
	c5.37,0,8.37,5.02,8.37,14.29C206.52,44.37,203.53,49.32,198.16,49.32 M198.16,16.9c-10.95,0-17.01,8.16-17.01,18.13
	c0,9.97,6.07,18.13,17.01,18.13c10.95,0,17.01-8.16,17.01-18.13C215.17,25.05,209.1,16.9,198.16,16.9 M238.31,16.9
	c-5.16,0-8.02,2.23-9.62,5.09h-0.42v-4.39h-8.23v34.86h8.23V29.93c0-5.16,2.65-8.16,6.9-8.16c4.11,0,5.93,2.72,5.93,6.83v23.84h8.23
	V28.54C249.33,21.36,245.56,16.9,238.31,16.9 M360.51,49.32c-5.37,0-8.37-5.09-8.37-14.29c0-9.34,3-14.29,8.37-14.29
	c5.37,0,8.37,5.02,8.37,14.29C368.88,44.37,365.88,49.32,360.51,49.32 M360.51,16.9c-10.95,0-17.01,8.16-17.01,18.13
	c0,9.97,6.07,18.13,17.01,18.13c10.95,0,17.01-8.16,17.01-18.13C377.52,25.05,371.46,16.9,360.51,16.9 M436.56,16.9
	c-5.16,0-8.02,2.23-9.62,5.09h-0.42v-4.39h-8.23v34.86h8.23V29.93c0-5.16,2.65-8.16,6.9-8.16c4.11,0,5.93,2.72,5.93,6.83v23.84h8.23
	V28.54C447.58,21.36,443.81,16.9,436.56,16.9 M466.26,16.9c-7.6,0-13.32,3.21-13.32,10.04c0,5.79,3.97,8.92,8.44,10.04l6.97,1.74
	c3.69,0.91,5.37,2.23,5.37,5.16c0,3.56-2.51,5.58-6.9,5.58c-4.74,0-7.18-2.3-7.95-8.09l-7.39,2.09c0.42,6,6,9.69,14.43,9.69
	c9.41,0,14.5-4.39,14.5-11.36c0-6.55-4.53-9.27-9.27-10.46l-6.69-1.67c-3.35-0.84-4.81-2.37-4.81-4.6c0-2.79,2.37-4.46,5.93-4.46
	c4.18,0,6.76,2.3,7.11,6.69l6.97-2.09C478.81,20.31,474,16.9,466.26,16.9 M500.83,49.32c-5.37,0-8.37-5.09-8.37-14.29
	c0-9.34,3-14.29,8.37-14.29c5.37,0,8.37,5.02,8.37,14.29C509.2,44.37,506.2,49.32,500.83,49.32 M500.83,16.9
	c-10.95,0-17.01,8.16-17.01,18.13c0,9.97,6.07,18.13,17.01,18.13c10.95,0,17.01-8.16,17.01-18.13
	C517.84,25.05,511.78,16.9,500.83,16.9 M540.98,16.9c-5.16,0-8.02,2.23-9.62,5.09h-0.42v-4.39h-8.23v34.86h8.23V29.93
	c0-5.16,2.65-8.16,6.9-8.16c4.11,0,5.93,2.72,5.93,6.83v23.84H552V28.54C552,21.36,548.24,16.9,540.98,16.9 M35.95,3.65H27.3v36.04
	c0,5.86-2.23,9.34-7.53,9.34c-5.23,0-7.53-3.69-7.53-10.04V32.3L3.6,34.47v3c0,9.13,4.53,16.11,16.18,16.11
	c11.64,0,16.17-6.97,16.17-16.11V3.65 M87.95,3.65h-8.23v48.8h8.23V29.93c0-5.16,2.65-8.16,6.9-8.16c4.11,0,5.93,2.72,5.93,6.83
	v23.84H109V28.54c0-7.18-3.77-11.64-11.02-11.64c-5.16,0-8.02,2.23-9.62,5.09h-0.42V3.65 M338.62,3.65h-8.64v36.04
	c0,5.86-2.23,9.34-7.53,9.34c-5.23,0-7.53-3.69-7.53-10.04V32.3l-8.64,2.16v3c0,9.13,4.53,16.11,16.18,16.11
	c11.64,0,16.17-6.97,16.17-16.11V3.65 M390.62,3.65h-8.23v48.8h8.23V29.93c0-5.16,2.65-8.16,6.9-8.16c4.11,0,5.93,2.72,5.93,6.83
	v23.84h8.23V28.54c0-7.18-3.76-11.64-11.02-11.64c-5.16,0-8.02,2.23-9.62,5.09h-0.42V3.65 M276.44,48.48
	c-6.69,0-10.81-5.44-10.81-11.23c0-3.63,1.6-6.97,4.25-8.85l15.76,17.22C282.72,47.36,279.44,48.48,276.44,48.48 M291.78,39.9
	l-13.66-15.06c2.44-0.98,4.81-1.32,6.76-1.32c5.65,0,9.13,3.28,9.13,8.92C294.01,34.95,293.31,37.53,291.78,39.9 M276.23,22.82
	l-3-3.35c-2.65-2.93-3.42-4.74-3.42-6.9c0-4.04,2.58-6.34,6.62-6.34c4.11,0,6.55,2.37,6.55,6.69C283,16.9,281.04,20.66,276.23,22.82
	 M276.65,2.53c-9.62,0-14.36,5.37-14.36,12.06c0,3.62,1.53,7.25,5.58,11.64l0.07,0.14c-6.83,3.28-9.97,8.58-9.97,14.01
	c0,7.18,5.51,13.18,14.01,13.18c4.88,0,10.6-2.02,15.76-5.65l4.18,4.53h10.95V52.1l-8.92-9.83c3.77-4.46,5.93-9.34,5.93-13.6
	c0-5.3-3.56-8.85-9.13-8.85c-2.93,0-6.21,0.84-8.37,1.67l-0.14-0.28c5.3-2.86,7.53-5.51,7.53-9.2
	C289.76,6.72,285.02,2.53,276.65,2.53 M155.29,77.11h-5.93l-8.92,28.17l-8.99-28.17h-6.14l11.36,34.86h7.25L155.29,77.11
	 M228.13,77.11h-5.79v34.86h5.79V77.11z M263.68,77.11h-5.93l-8.92,28.17l-8.99-28.17h-6.13l11.36,34.86h7.25L263.68,77.11
	 M457.54,77.11h-5.79v34.86h5.79V77.11z M507.31,77.11h-5.79v34.86h5.79V77.11z M36.71,76.41c-4.95,0-8.37,2.37-9.76,6.07v-5.37
	h-5.79v34.86h5.79V89.03c0-4.88,2.44-8.16,7.6-8.16c5.09,0,7.53,3.28,7.53,8.16v22.94h5.79V87.85
	C47.87,81.29,43.76,76.41,36.71,76.41 M71.78,76.41c-4.95,0-8.37,2.37-9.76,6.07v-5.37h-5.79v34.86h5.79V89.03
	c0-4.88,2.44-8.16,7.6-8.16c5.09,0,7.53,3.28,7.53,8.16v22.94h5.79V87.85C82.93,81.29,78.82,76.41,71.78,76.41 M106.21,107.72
	c-5.86,0-9.9-4.18-9.9-13.18c0-9.06,3.97-13.18,9.9-13.18c5.86,0,9.9,4.11,9.9,13.18C116.11,103.53,112.21,107.72,106.21,107.72
	 M106.49,76.41c-10.46,0-16.24,7.67-16.24,18.55c0,11.01,5.93,17.71,15.69,17.71c10.53,0,16.25-7.67,16.25-18.55
	C122.18,83.1,116.32,76.41,106.49,76.41 M172.99,108.48c-3.97,0-6.69-2.23-6.69-6.13c0-3.28,1.88-4.88,5.86-5.86l4.25-1.05
	c2.65-0.63,4.11-1.05,4.67-1.53v6.76C181.08,105.83,177.52,108.48,172.99,108.48 M174.81,76.41c-8.44,0-13.67,5.09-14.08,11.16
	l5.37,1.12c0.28-4.46,3-7.81,8.3-7.81c4.46,0,6.69,2.44,6.69,6.48v0.21c0,1.67-0.49,2.37-2.02,2.79l-10.04,2.51
	c-5.37,1.4-8.51,4.95-8.51,9.9c0,6.28,4.67,9.9,10.88,9.9c5.23,0,8.72-2.51,9.69-6c0.14,3.28,0.42,4.67,0.7,5.3h5.93
	c-0.63-1.81-0.91-4.32-0.91-7.25V87.01C186.8,80.46,182.26,76.41,174.81,76.41 M273.02,90.77c0.77-6.13,3.9-9.62,9.41-9.62
	c5.23,0,8.3,3.14,8.44,9.62H273.02 M282.43,76.41c-9.2,0-15.62,6.48-15.62,18.41c0,11.43,5.93,17.85,15.62,17.85
	c7.95,0,12.97-4.53,14.22-11.36l-5.3-1.39c-0.91,5.86-4.04,7.88-8.37,7.88c-6.9,0-9.97-5.09-10.18-12.9h23.91v-1.95
	C296.73,80.73,290.1,76.41,282.43,76.41 M383.02,90.77c0.77-6.13,3.9-9.62,9.41-9.62c5.23,0,8.3,3.14,8.44,9.62H383.02
	 M392.43,76.41c-9.2,0-15.62,6.48-15.62,18.41c0,11.43,5.93,17.85,15.62,17.85c7.95,0,12.97-4.53,14.22-11.36l-5.3-1.39
	c-0.91,5.86-4.04,7.88-8.37,7.88c-6.9,0-9.97-5.09-10.18-12.9h23.91v-1.95C406.73,80.73,400.1,76.41,392.43,76.41 M480.89,76.41
	c-9.55,0-16.04,6.69-16.04,18.48c0,11.57,6.34,17.78,15.76,17.78c8.51,0,13.32-5.23,14.29-12.41l-5.51-1.33
	c-0.98,6.55-3.76,8.79-8.37,8.79c-6.69,0-10.11-4.88-10.11-13.25c0-8.71,3.62-13.11,9.83-13.11c4.39,0,7.6,2.16,8.64,8.37l5.51-1.32
	C493.93,81.29,489.12,76.41,480.89,76.41 M531.22,76.41c-4.95,0-8.37,2.37-9.76,6.07v-5.37h-5.79v34.86h5.79V89.03
	c0-4.88,2.44-8.16,7.6-8.16c5.09,0,7.53,3.28,7.53,8.16v22.94h5.79V87.85C542.38,81.29,538.26,76.41,531.22,76.41 M555.9,90.77
	c0.77-6.13,3.9-9.62,9.41-9.62c5.23,0,8.3,3.14,8.44,9.62H555.9 M565.31,76.41c-9.2,0-15.62,6.48-15.62,18.41
	c0,11.43,5.93,17.85,15.62,17.85c7.95,0,12.97-4.53,14.22-11.36l-5.3-1.39c-0.91,5.86-4.04,7.88-8.37,7.88
	c-6.9,0-9.97-5.09-10.18-12.9h23.91v-1.95C579.6,80.73,572.98,76.41,565.31,76.41 M205.55,67.35l-5.79,1.39v8.37h-6.69v4.46h6.69
	v21.33c0,5.72,2.72,9.76,9.55,9.76c3.42,0,6.34-1.12,7.46-2.16l-1.6-4.18c0,0-2.09,1.46-5.09,1.46c-3.14,0-4.53-1.88-4.53-5.79
	V81.57h10.32v-4.46h-10.32V67.35 M12.11,63.16H6.04v48.8h6.07V63.16z M368.81,63.16h-9.2l-14.43,39.32l-14.5-39.32h-9.62v48.8h6.07
	V69.93l15.55,42.04h4.67l15.41-42.11v42.11h6.06V63.16 M428.19,107.72c-5.72,0-9.55-4.11-9.55-13.18c0-9.13,3.84-13.18,9.55-13.18
	c5.72,0,9.55,4.04,9.55,13.18C437.74,103.6,433.91,107.72,428.19,107.72 M443.39,63.16h-5.79V83.8c-1.26-3.84-4.32-7.39-10.39-7.39
	c-7.81,0-14.64,6.14-14.64,18.34c0,12.34,6.83,17.92,14.15,17.92c5.51,0,9.55-3.21,10.88-7.74v2.65c0,1.6,0.14,3.35,0.35,4.39h5.86
	c-0.28-1.67-0.42-4.11-0.42-7.25V63.16 M225.27,62.12c-2.3,0-4.11,1.81-4.11,4.11c0,2.3,1.81,4.04,4.11,4.04
	c2.3,0,4.04-1.74,4.04-4.04C229.32,63.93,227.57,62.12,225.27,62.12 M454.68,62.12c-2.3,0-4.11,1.81-4.11,4.11
	c0,2.3,1.81,4.04,4.11,4.04c2.3,0,4.04-1.74,4.04-4.04C458.73,63.93,456.98,62.12,454.68,62.12 M504.45,62.12
	c-2.3,0-4.11,1.81-4.11,4.11c0,2.3,1.81,4.04,4.11,4.04c2.3,0,4.04-1.74,4.04-4.04C508.5,63.93,506.75,62.12,504.45,62.12"/>
</svg>
